<svg xmlns="http://www.w3.org/2000/svg" version="1.1" xmlns:xlink="http://www.w3.org/1999/xlink" xmlns:svgjs="http://svgjs.dev/svgjs" width="2080" height="1676" preserveAspectRatio="none" viewBox="0 0 2080 1676"><g mask="url(&quot;#SvgjsMask3675&quot;)" fill="none"><rect width="2080" height="1676" x="0" y="0" fill="url(&quot;#SvgjsLinearGradient3676&quot;)"></rect><path d="M 0,377 C 69.4,446 208.2,720 347,722 C 485.8,724 555.2,422.8 694,387 C 832.8,351.2 902.2,569.4 1041,543 C 1179.8,516.6 1249.2,215.4 1388,255 C 1526.8,294.6 1596.6,767.4 1735,741 C 1873.4,714.6 2011,246.6 2080,123L2080 1676L0 1676z" fill="rgba(0, 0, 0, 1)"></path><path d="M 0,1274 C 104,1225.4 312,1022.4 520,1031 C 728,1039.6 832,1273.2 1040,1317 C 1248,1360.8 1352,1239 1560,1250 C 1768,1261 1976,1347.6 2080,1372L2080 1676L0 1676z" fill="rgba(210, 7, 48, 0.64)"></path></g><defs><mask id="SvgjsMask3675"><rect width="2080" height="1676" fill="#ffffff"></rect></mask><linearGradient x1="50%" y1="0%" x2="50%" y2="100%" gradientUnits="userSpaceOnUse" id="SvgjsLinearGradient3676"><stop stop-color="rgba(0, 0, 0, 1)" offset="0"></stop><stop stop-color="rgba(243, 0, 0, 1)" offset="0.98"></stop><stop stop-color="rgba(140, 0, 0, 1)" offset="1"></stop></linearGradient></defs></svg>