<svg xmlns="http://www.w3.org/2000/svg" version="1.1" xmlns:xlink="http://www.w3.org/1999/xlink" xmlns:svgjs="http://svgjs.dev/svgjs" width="2080" height="1413" preserveAspectRatio="none" viewBox="0 0 2080 1413"><g mask="url(&quot;#SvgjsMask3141&quot;)" fill="none"><rect width="2080" height="1413" x="0" y="0" fill="url(&quot;#SvgjsLinearGradient3142&quot;)"></rect><path d="M 0,195 C 69.4,233.2 208.2,360.6 347,386 C 485.8,411.4 555.2,314.8 694,322 C 832.8,329.2 902.2,484.2 1041,422 C 1179.8,359.8 1249.2,-2 1388,11 C 1526.8,24 1596.6,429.6 1735,487 C 1873.4,544.4 2011,335.8 2080,298L2080 1413L0 1413z" fill="rgba(0, 0, 0, 1)"></path><path d="M 0,1335 C 104,1232.8 312,826.2 520,824 C 728,821.8 832,1313.4 1040,1324 C 1248,1334.6 1352,929 1560,877 C 1768,825 1976,1026.6 2080,1064L2080 1413L0 1413z" fill="rgba(210, 17, 17, 0.41)"></path></g><defs><mask id="SvgjsMask3141"><rect width="2080" height="1413" fill="#ffffff"></rect></mask><linearGradient x1="50%" y1="0%" x2="50%" y2="100%" gradientUnits="userSpaceOnUse" id="SvgjsLinearGradient3142"><stop stop-color="rgba(0, 0, 0, 1)" offset="0"></stop><stop stop-color="rgba(243, 0, 0, 1)" offset="0.98"></stop><stop stop-color="rgba(140, 0, 0, 1)" offset="1"></stop></linearGradient></defs></svg>