<svg xmlns="http://www.w3.org/2000/svg" version="1.1" xmlns:xlink="http://www.w3.org/1999/xlink" xmlns:svgjs="http://svgjs.dev/svgjs" width="2080" height="1080" preserveAspectRatio="none" viewBox="0 0 2080 1080"><g mask="url(&quot;#SvgjsMask2465&quot;)" fill="none"><rect width="2080" height="1080" x="0" y="0" fill="url(&quot;#SvgjsLinearGradient2466&quot;)"></rect><path d="M 0,291 C 69.4,275.8 208.2,201.4 347,215 C 485.8,228.6 555.2,374.2 694,359 C 832.8,343.8 902.2,105.4 1041,139 C 1179.8,172.6 1249.2,539.6 1388,527 C 1526.8,514.4 1596.6,112.6 1735,76 C 1873.4,39.4 2011,290.4 2080,344L2080 1080L0 1080z" fill="rgba(0, 0, 0, 1)"></path><path d="M 0,722 C 104,775 312,984.2 520,987 C 728,989.8 832,749.4 1040,736 C 1248,722.6 1352,918.8 1560,920 C 1768,921.2 1976,777.6 2080,742L2080 1080L0 1080z" fill="rgba(255, 255, 255, 1)"></path></g><defs><mask id="SvgjsMask2465"><rect width="2080" height="1080" fill="#ffffff"></rect></mask><linearGradient x1="50%" y1="0%" x2="50%" y2="100%" gradientUnits="userSpaceOnUse" id="SvgjsLinearGradient2466"><stop stop-color="rgba(0, 0, 0, 1)" offset="0"></stop><stop stop-color="rgba(243, 0, 0, 1)" offset="0.98"></stop><stop stop-color="rgba(140, 0, 0, 1)" offset="1"></stop></linearGradient></defs></svg>